<?xml version="1.0" encoding="UTF-8"?>
<svg id="Layer_2" data-name="Layer 2" xmlns="http://www.w3.org/2000/svg" xmlns:xlink="http://www.w3.org/1999/xlink" viewBox="0 0 479.07 204.88">
  <defs>
    <style>
      .cls-1 {
        fill: #100909;
        fill-rule: evenodd;
        stroke-linejoin: round;
        stroke-width: 3.48px;
      }

      .cls-1, .cls-2 {
        stroke: #fff;
      }

      .cls-1, .cls-3, .cls-4 {
        stroke-linecap: round;
      }

      .cls-5 {
        mask: url(#mask);
      }

      .cls-6, .cls-2, .cls-7, .cls-8, .cls-9, .cls-3, .cls-10, .cls-11, .cls-12, .cls-13, .cls-14, .cls-15, .cls-4, .cls-16, .cls-17 {
        stroke-miterlimit: 10;
      }

      .cls-6, .cls-2, .cls-7, .cls-8, .cls-9, .cls-3, .cls-10, .cls-11, .cls-12, .cls-13, .cls-14, .cls-4, .cls-17 {
        fill: none;
      }

      .cls-6, .cls-7, .cls-8, .cls-9, .cls-10, .cls-12, .cls-14, .cls-4, .cls-17 {
        stroke-width: 13.93px;
      }

      .cls-6, .cls-3, .cls-11, .cls-15, .cls-4, .cls-16 {
        stroke: #231f20;
      }

      .cls-2, .cls-13 {
        stroke-width: 5.22px;
      }

      .cls-7 {
        stroke: #0ba074;
      }

      .cls-18, .cls-19, .cls-20 {
        stroke-width: 0px;
      }

      .cls-18, .cls-15, .cls-16 {
        fill: #231f20;
      }

      .cls-8 {
        stroke: #e5a124;
      }

      .cls-9 {
        stroke: #d46127;
      }

      .cls-3 {
        stroke-width: 8.71px;
      }

      .cls-10 {
        stroke: #f0e443;
      }

      .cls-11, .cls-16 {
        stroke-width: 1.89px;
      }

      .cls-12 {
        stroke: #5ab4e5;
      }

      .cls-13 {
        stroke: #4a2e12;
      }

      .cls-19 {
        fill: #7d4a1e;
      }

      .cls-14 {
        stroke: #cc79a7;
      }

      .cls-15 {
        stroke-width: 1.8px;
      }

      .cls-21 {
        filter: url(#luminosity-invert-noclip);
      }

      .cls-20 {
        fill: #fff;
      }

      .cls-17 {
        stroke: #0274b3;
      }
    </style>
    <filter id="luminosity-invert-noclip" x="27.86" y="20.86" width="250.97" height="108.7" color-interpolation-filters="sRGB" filterUnits="userSpaceOnUse">
      <feColorMatrix result="cm" values="-1 0 0 0 1 0 -1 0 0 1 0 0 -1 0 1 0 0 0 1 0"/>
      <feFlood flood-color="#fff" result="bg"/>
      <feBlend in="cm" in2="bg"/>
    </filter>
    <mask id="mask" x="27.86" y="20.86" width="250.97" height="108.7" maskUnits="userSpaceOnUse">
      <g class="cls-21">
        <path class="cls-20" d="M278.83,20.86l-46.83,62.87-4.25,5.69-.03.03c-3.1,2.75-7.17,4.42-11.63,4.42-9.66,0-17.52-7.84-17.52-17.52,0-.64.03-1.27.1-1.9-.51.05-1.01.07-1.53.07-9.68,0-17.52-7.84-17.52-17.52,0-.38.02-.75.03-1.13-.3.02-.59.02-.89.02-9.68,0-17.52-7.84-17.52-17.52,0-8.97,6.74-16.37,15.43-17.4.68-.09,1.38-.12,2.09-.12h100.06Z"/>
      </g>
    </mask>
  </defs>
  <g id="Layer_1-2" data-name="Layer 1">
    <g>
      <rect class="cls-20" width="479.07" height="204.88"/>
      <g>
        <g class="cls-5">
          <g>
            <g>
              <rect class="cls-19" x="47.41" y="32.96" width="174.13" height="87.8" rx="4.04" ry="4.04"/>
              <rect class="cls-13" x="47.41" y="32.96" width="174.04" height="87.8" rx="4.14" ry="4.14"/>
              <line class="cls-13" x1="47.31" y1="62.22" x2="222.6" y2="62.22"/>
              <line class="cls-13" x1="47.31" y1="91.49" x2="222.6" y2="91.49"/>
              <line class="cls-13" x1="197.49" y1="33.62" x2="197.49" y2="121.42"/>
              <line class="cls-13" x1="172.48" y1="33.62" x2="172.48" y2="121.42"/>
              <line class="cls-13" x1="147.46" y1="33.62" x2="147.46" y2="121.42"/>
              <line class="cls-13" x1="122.45" y1="33.62" x2="122.45" y2="121.42"/>
              <line class="cls-13" x1="97.43" y1="33.62" x2="97.43" y2="121.42"/>
              <line class="cls-13" x1="72.42" y1="32.29" x2="72.42" y2="120.09"/>
            </g>
            <g>
              <line class="cls-6" x1="34.83" y1="25.33" x2="34.83" y2="128.38"/>
              <line class="cls-17" x1="48.78" y1="25.33" x2="48.78" y2="128.38"/>
              <line class="cls-14" x1="62.73" y1="25.33" x2="62.73" y2="128.38"/>
              <line class="cls-7" x1="76.68" y1="25.33" x2="76.68" y2="128.38"/>
              <line class="cls-10" x1="90.63" y1="25.33" x2="90.63" y2="128.38"/>
              <line class="cls-8" x1="104.58" y1="25.33" x2="104.58" y2="128.38"/>
              <line class="cls-12" x1="118.29" y1="25.33" x2="118.29" y2="128.38"/>
              <line class="cls-9" x1="132.24" y1="25.33" x2="132.24" y2="128.38"/>
              <polygon class="cls-1" points="139.94 27.01 139.94 127.81 114.82 115.08 139.94 27.01"/>
            </g>
          </g>
        </g>
        <rect class="cls-20" x="211.71" y="26.78" width="30.48" height="65.01"/>
        <g>
          <path class="cls-16" d="M333.21,126.9c-15.46-8.66-25.63-23.31-25.63-39.94,0-26.6,26.03-48.17,58.13-48.17s58.13,21.56,58.13,48.17c0,13.3-6.51,25.34-17.03,34.06"/>
          <path class="cls-16" d="M333.16,126.87l-105.15-51.04c-5.67-2.75-4.06-11.24,2.23-11.72l89.78-6.88,13.15,69.65Z"/>
          <path class="cls-15" d="M291.59,59.11l18.88-16.83c1.67-1.49,4.33-.52,4.64,1.7l2.67,18.68c.25,1.79-1.22,3.34-3.02,3.19l-21.55-1.85c-2.45-.21-3.46-3.25-1.63-4.89Z"/>
          <path class="cls-3" d="M399.37,25.93c28.32,0,51.27,21.94,51.27,49.01s-22.96,49.01-51.27,49.01"/>
          <line class="cls-4" x1="290.2" y1="121.43" x2="399.74" y2="121.43"/>
          <line class="cls-4" x1="355.52" y1="121.43" x2="399.74" y2="121.43"/>
          <line class="cls-11" x1="333.16" y1="126.87" x2="406.82" y2="121.02"/>
          <path class="cls-2" d="M352.26,131.58c-4.69-1.45-5.4-7.78-4.5-11.18.9-3.4,3.56-6.16,6.72-7.7s6.77-1.96,10.28-1.77c-2.04-5.5-1.91-11.76.35-17.17,2.26-5.41,6.64-9.9,11.99-12.3"/>
          <circle class="cls-20" cx="270.06" cy="74.56" r="3.45"/>
        </g>
        <g>
          <path class="cls-18" d="M58.68,182.82c-2.37,1.24-5.5,2.31-9.76,2.31-6.92,0-11.12-2.37-14.43-5.5-4.55-4.38-6.33-9.29-6.33-15.08,0-7.16,2.96-12.3,6.33-15.44,3.96-3.73,8.87-5.21,14.49-5.21,2.78,0,6.09.47,9.7,2.43v8.99c-3.61-4.14-8.1-4.44-9.52-4.44-7.93,0-13.07,6.51-13.07,13.78,0,8.75,6.74,13.49,13.37,13.49,3.67,0,6.92-1.6,9.23-4.32v8.99Z"/>
          <path class="cls-18" d="M73.47,160.05h16.68v-15.26h7.69v39.45h-7.69v-17.57h-16.68v17.57h-7.69v-39.45h7.69v15.26Z"/>
          <path class="cls-18" d="M147.04,164.54c0,12.01-8.64,20.58-21.06,20.58s-21.06-8.58-21.06-20.58,8.64-20.64,21.06-20.64,21.06,8.64,21.06,20.64ZM139.12,164.54c0-7.99-5.44-13.66-13.13-13.66s-13.13,5.68-13.13,13.66,5.44,13.6,13.13,13.6,13.13-5.62,13.13-13.6Z"/>
          <path class="cls-18" d="M182.76,182.82c-2.37,1.24-5.5,2.31-9.76,2.31-6.92,0-11.12-2.37-14.43-5.5-4.55-4.38-6.33-9.29-6.33-15.08,0-7.16,2.96-12.3,6.33-15.44,3.96-3.73,8.87-5.21,14.49-5.21,2.78,0,6.09.47,9.7,2.43v8.99c-3.61-4.14-8.1-4.44-9.52-4.44-7.93,0-13.07,6.51-13.07,13.78,0,8.75,6.74,13.49,13.37,13.49,3.67,0,6.92-1.6,9.23-4.32v8.99Z"/>
          <path class="cls-18" d="M230.08,164.54c0,12.01-8.64,20.58-21.06,20.58s-21.06-8.58-21.06-20.58,8.64-20.64,21.06-20.64,21.06,8.64,21.06,20.64ZM222.15,164.54c0-7.99-5.44-13.66-13.13-13.66s-13.13,5.68-13.13,13.66,5.44,13.6,13.13,13.6,13.13-5.62,13.13-13.6Z"/>
          <path class="cls-18" d="M244.86,144.79v32.83h12.18v6.63h-19.87v-39.45h7.69Z"/>
          <path class="cls-18" d="M286.97,175.96h-15.91l-3.49,8.28h-8.34l16.98-39.45h6.03l16.5,39.45h-8.28l-3.49-8.28ZM284.72,169.69l-5.62-14.2-5.62,14.2h11.24Z"/>
          <path class="cls-18" d="M313.76,151.41v32.83h-7.69v-32.83h-8.87v-6.62h25.44v6.62h-8.87Z"/>
          <path class="cls-18" d="M325.94,167.32h15.38v6.62h-15.38v-6.62Z"/>
          <path class="cls-18" d="M368.76,163.12h18.1v.47c0,2.66-.36,10.94-5.8,16.33-4.08,4.08-9.11,5.21-14.02,5.21s-10-1.01-14.31-5.32c-1.36-1.36-5.86-6.33-5.86-15.2,0-7.63,3.43-12.3,5.8-14.67,2.96-3.02,7.93-6.03,15.56-6.03,2.96,0,6.09.47,9.11,2.07,2.54,1.3,5.32,3.67,7.39,7.22l-6.68,3.61c-1.36-2.66-3.37-4.02-4.61-4.67-1.66-.83-3.73-1.24-5.56-1.24-3.14,0-6.69,1.12-9.11,3.49-2.25,2.19-3.96,5.97-3.96,10.41,0,5.26,2.25,8.4,3.9,10,1.77,1.72,4.55,3.37,8.75,3.37,2.6,0,5.56-.71,7.75-2.37,1.54-1.18,3.07-3.19,3.73-6.03h-10.17v-6.63Z"/>
          <path class="cls-18" d="M402.12,171.05c.71-.83,5.32-6.09,6.74-8.22,1.06-1.6,2.31-4.02,2.31-6.33,0-3.55-2.54-5.97-5.86-5.97-4.02,0-6.15,3.19-6.27,6.56h-7.93c.36-8.04,6.03-13.19,13.84-13.19,9.17,0,13.9,6.27,13.9,12.54s-4.08,10.47-7.16,13.78l-6.8,7.39h14.25v6.63h-28.63l11.59-13.19Z"/>
          <path class="cls-18" d="M439.02,144.79c4.44,0,7.51.47,10.41,3.02,3.2,2.84,4.02,6.68,4.02,9.52,0,1.54-.24,5.8-3.25,8.81-2.19,2.19-5.44,3.49-10,3.49h-4.97v14.61h-7.69v-39.45h11.48ZM435.23,163.01h3.13c1.48,0,3.37,0,5.03-1.24,1.42-1.12,2.13-2.9,2.13-4.61,0-2.19-1.06-3.67-2.19-4.49-1.6-1.12-3.61-1.24-5.44-1.24h-2.66v11.59Z"/>
        </g>
      </g>
    </g>
  </g>
</svg>